<svg width="497" height="636" viewBox="0 0 497 636" fill="none" xmlns="http://www.w3.org/2000/svg">
<path d="M118.728 1.18553e-09C130.325 1.18553e-09 136.124 -3.21064e-06 140.554 2.25684C144.45 4.2422 147.619 7.41015 149.604 11.3066C151.862 15.7364 151.861 21.536 151.861 33.1338V601.922C151.861 613.52 151.862 619.319 149.604 623.749C147.619 627.645 144.45 630.813 140.554 632.799C136.124 635.056 130.325 635.056 118.728 635.056H33.1338C21.5361 635.056 15.7364 635.056 11.3066 632.799C7.41024 630.813 4.2422 627.645 2.25684 623.749C-0.000237327 619.319 1.18553e-09 613.52 1.18553e-09 601.922V33.1338C1.18553e-09 21.536 -0.000237327 15.7364 2.25684 11.3066C4.24219 7.41023 7.41023 4.24219 11.3066 2.25684C15.7364 -0.000237327 21.536 1.18553e-09 33.1338 1.18553e-09H118.728ZM269.208 1.18553e-09C329.622 1.18553e-09 387.562 23.9996 430.281 66.7188C473 109.438 497 167.378 497 227.792C497 288.206 473 346.146 430.281 388.865C387.562 431.584 329.622 455.584 269.208 455.584H234.694C219.445 455.584 207.083 443.222 207.083 427.973C207.083 412.723 219.445 400.361 234.694 400.361H269.208C314.976 400.361 358.87 382.179 391.233 349.816C423.596 317.453 441.777 273.56 441.777 227.792C441.777 182.024 423.596 138.13 391.233 105.767C358.87 73.4036 314.976 55.2227 269.208 55.2227H234.694C219.445 55.2226 207.083 42.8604 207.083 27.6113C207.083 12.3622 219.445 5.77315e-05 234.694 1.18553e-09H269.208Z" fill="black"/>
</svg>
