<svg width="497" height="636" viewBox="0 0 497 636" fill="none" xmlns="http://www.w3.org/2000/svg">
<path d="M100.661 0C118.583 0 127.544 -0.000330196 134.389 3.4873C140.41 6.55525 145.305 11.4515 148.373 17.4727C151.861 24.3178 151.861 33.2787 151.861 51.2002V583.855C151.861 601.777 151.861 610.738 148.373 617.583C145.305 623.604 140.41 628.499 134.389 631.567C127.543 635.055 118.583 635.056 100.661 635.056H51.2002C33.2786 635.056 24.3178 635.055 17.4727 631.567C11.4515 628.499 6.55525 623.604 3.4873 617.583C-0.000293165 610.738 0 601.777 0 583.855V51.2002C0 33.2789 -0.00024379 24.3178 3.4873 17.4727C6.55525 11.4515 11.4515 6.55525 17.4727 3.4873C24.3178 -0.00024379 33.2789 0 51.2002 0H100.661ZM269.208 0C329.622 0 387.562 23.9996 430.281 66.7188C473 109.438 497 167.378 497 227.792C497 288.206 473 346.146 430.281 388.865C387.562 431.584 329.622 455.584 269.208 455.584H234.694C219.445 455.584 207.083 443.222 207.083 427.973C207.083 412.723 219.445 400.361 234.694 400.361H269.208C314.976 400.361 358.87 382.179 391.233 349.816C423.596 317.453 441.777 273.56 441.777 227.792C441.777 182.024 423.596 138.13 391.233 105.767C358.87 73.4036 314.976 55.2227 269.208 55.2227H234.694C219.445 55.2226 207.083 42.8604 207.083 27.6113C207.083 12.3622 219.445 5.77303e-05 234.694 0H269.208Z" fill="black"/>
</svg>
